<svg width="109" height="109" viewBox="0 0 109 109" fill="none" xmlns="http://www.w3.org/2000/svg">
<circle cx="54.5" cy="54.5" r="52.5" fill="#0D9E00" fill-opacity="0.19" stroke="#305A02" stroke-width="4"/>
<path d="M66.1116 36H57.79C57.015 36 56.2691 36.2906 55.6975 36.8138L46.1747 45.5325C46.165 45.5422 46.1553 45.5616 46.1456 45.5712C44.5375 47.0825 44.5666 49.4947 45.9422 50.9962C47.1725 52.3428 49.7591 52.7012 51.3769 51.2578C51.3866 51.2481 51.4059 51.2481 51.4156 51.2384L59.1559 44.1472C59.7856 43.5756 60.7738 43.6144 61.3453 44.2441C61.9266 44.8737 61.8781 45.8522 61.2484 46.4334L58.72 48.7487L72.825 60.1994C73.1059 60.4319 73.3578 60.6837 73.5903 60.9453V42.2L68.3009 36.9106C67.7294 36.3294 66.935 36 66.1116 36ZM76.7 42.2194V63.9097C76.7 65.6244 78.0853 67.0097 79.8 67.0097H86V42.2194H76.7ZM81.35 63.9097C80.4975 63.9097 79.8 63.2122 79.8 62.3597C79.8 61.5072 80.4975 60.8097 81.35 60.8097C82.2025 60.8097 82.9 61.5072 82.9 62.3597C82.9 63.2122 82.2025 63.9097 81.35 63.9097ZM24 67H30.2C31.9147 67 33.3 65.6147 33.3 63.9V42.2194H24V67ZM28.65 60.8097C29.5025 60.8097 30.2 61.5072 30.2 62.3597C30.2 63.2122 29.5025 63.9097 28.65 63.9097C27.7975 63.9097 27.1 63.2122 27.1 62.3597C27.1 61.4975 27.7975 60.8097 28.65 60.8097ZM70.8778 62.6116L56.4144 50.8703L53.5081 53.5344C50.6309 56.1597 46.2231 55.9078 43.6559 53.1081C41.05 50.26 41.2534 45.8522 44.0822 43.2559L52.0066 36H43.8884C43.065 36 42.2803 36.3294 41.6991 36.9106L36.4 42.2V63.8903H38.1728L46.94 71.8244C49.5944 73.9847 53.4984 73.5778 55.6587 70.9234L55.6781 70.9041L57.4122 72.4056C58.9525 73.665 61.2291 73.4228 62.4787 71.8825L65.5206 68.1431L66.0437 68.5694C67.3709 69.6447 69.3278 69.4509 70.4031 68.1141L71.3234 66.9806C72.4084 65.6437 72.205 63.6966 70.8778 62.6116Z" fill="#305A02"/>
</svg>
