<svg width="109" height="109" viewBox="0 0 109 109" fill="none" xmlns="http://www.w3.org/2000/svg">
<circle cx="54.5" cy="54.5" r="52.5" fill="#0D9E00" fill-opacity="0.19" stroke="#305A02" stroke-width="4"/>
<path d="M42.1882 71.1345C40 68.0764 40 64.5436 40 61.0373C44.4027 63.6736 48.7791 66.31 50.9936 69.3945L51.8636 70.8709V64.86C47.9091 62.4873 44.1655 60.0618 42.1882 57.2936C40 54.2355 40 50.7027 40 47.1964C44.4027 49.8327 48.7791 52.4691 50.9936 55.5536L51.8636 57.0827V51.0191C47.9091 48.6464 44.1655 46.2209 42.1882 43.4527C40 40.3945 40 36.8618 40 33.3555C44.4027 35.9918 48.7791 38.6282 50.9936 41.7127C51.2573 42.0818 51.4945 42.4773 51.7055 42.8991C51.2573 41.2645 50.9673 39.7355 50.9409 38.1536C50.9145 34.1727 52.6545 30.0864 54.3945 26C56.2136 29.9018 58.0327 33.83 58.0591 37.8109C58.0855 39.4718 57.7955 41.1591 57.3209 42.82C57.5318 42.4509 57.7427 42.0818 58.0064 41.7127C60.2209 38.6282 64.5973 35.9918 69 33.3555C69 36.8618 69 40.3945 66.8118 43.4527C64.8345 46.2209 61.0909 48.6464 57.1364 51.0191V57.0827L58.0064 55.5536C60.2209 52.4691 64.5973 49.8327 69 47.1964C69 50.7027 69 54.2355 66.8118 57.2936C64.8345 60.0618 61.0909 62.4873 57.1364 64.86V70.8709L58.0064 69.3945C60.2209 66.31 64.5973 63.6736 69 61.0373C69 64.5436 69 68.0764 66.8118 71.1345C64.8345 73.9027 61.0909 76.3282 57.1364 78.7009V83.4464H51.8636V78.7009C47.9091 76.3282 44.1655 73.9027 42.1882 71.1345Z" fill="#305A02"/>
</svg>
