<svg width="1211" height="1181" viewBox="0 0 1211 1181" fill="none" xmlns="http://www.w3.org/2000/svg">
<path fill-rule="evenodd" clip-rule="evenodd" d="M306.699 188.875C266.671 308.416 335.942 434.122 356.723 559.928C376.777 681.335 360.209 809.522 426.671 915.17C497.899 1028.39 607.149 1123.25 736.183 1163.12C864.355 1202.72 998.723 1167.47 1125.67 1131.13C1248.74 1095.91 1364.28 1043.43 1456.09 957.072C1552.19 866.668 1642.37 759.527 1659.61 628.838C1676.7 499.329 1611.33 373.675 1548.55 256.084C1489.31 145.109 1416.69 38.931 1308.65 -28.5534C1202.63 -94.7764 1076.37 -106.134 952.351 -116.316C823.13 -126.926 689.137 -143.31 573.971 -88.8722C454.134 -32.2269 348.225 64.8611 306.699 188.875Z" fill="#305A02"/>
<circle cx="1240" cy="526" r="505" fill="white" fill-opacity="0.05"/>
</svg>
