<svg width="109" height="109" viewBox="0 0 109 109" fill="none" xmlns="http://www.w3.org/2000/svg">
<circle cx="54.5" cy="54.5" r="52.5" fill="#0D9E00" fill-opacity="0.19" stroke="#305A02" stroke-width="4"/>
<path d="M53.3525 44.0289L58.6286 45.4191C58.8078 45.461 58.9681 45.5609 59.0847 45.7033C59.2013 45.8457 59.2675 46.0227 59.2732 46.2066C59.2732 46.6538 58.8756 47.0232 58.3865 47.0232H54.9255C54.5525 47.0222 54.1832 46.9496 53.8376 46.8094C53.3282 46.5955 52.741 46.6441 52.3501 47.0038L50.503 48.7051C50.4175 48.7799 50.3438 48.8671 50.2842 48.9638C50.208 49.0888 50.1572 49.2278 50.1349 49.3726C50.1126 49.5174 50.1191 49.6652 50.1542 49.8074C50.1893 49.9497 50.2521 50.0836 50.3392 50.2014C50.4263 50.3192 50.5358 50.4187 50.6614 50.494C51.6844 51.1079 52.8298 51.4896 54.0165 51.612V53.3328C54.0165 54.1884 54.7777 54.8883 55.7052 54.8883H57.3939C58.3224 54.8883 59.0836 54.1884 59.0836 53.3328V51.6218C62.2851 51.2718 64.7068 48.6079 64.2849 45.4969C63.9786 43.2608 62.1013 41.4817 59.7583 40.8595L54.4822 39.4692C54.303 39.4273 54.1427 39.3274 54.0261 39.185C53.9095 39.0426 53.8433 38.8657 53.8376 38.6818C53.8376 38.2345 54.2352 37.8651 54.7243 37.8651H58.1853C58.5596 37.8657 58.9302 37.9383 59.2771 38.079C59.7855 38.2929 60.3737 38.2443 60.7645 37.8846L62.6117 36.1832C62.6943 36.11 62.7655 36.0248 62.8227 35.9304C62.8996 35.8054 62.951 35.6663 62.9738 35.5213C62.9967 35.3763 62.9906 35.2282 62.9559 35.0855C62.9212 34.9429 62.8585 34.8085 62.7716 34.6902C62.6847 34.5719 62.5751 34.472 62.4494 34.3963C61.4261 33.7824 60.2804 33.4007 59.0933 33.2783V31.5555C59.0933 30.7 58.3331 30 57.4046 30H55.7159C54.7875 30 54.0272 30.7 54.0272 31.5555V33.2666C50.8296 33.6166 48.403 36.2804 48.8249 39.3915C49.1302 41.6275 51.0134 43.4067 53.3525 44.0289ZM81.9556 61.8979C80.8084 60.8577 79.0196 60.9257 77.814 61.8979L68.8309 69.0825C67.7282 69.9671 66.3558 70.4475 64.9421 70.4436H53.4439C53.0313 70.4436 52.6357 70.2797 52.344 69.988C52.0522 69.6963 51.8884 69.3006 51.8884 68.888C51.8884 68.4755 52.0522 68.0798 52.344 67.7881C52.6357 67.4964 53.0313 67.3325 53.4439 67.3325H61.0552C62.601 67.3325 64.0409 66.2728 64.2878 64.7465C64.3183 64.5712 64.3332 64.3936 64.3325 64.2156C64.331 63.3916 64.0025 62.6017 63.4193 62.0196C62.836 61.4374 62.0456 61.1104 61.2215 61.1104H45.6663C43.0429 61.1111 40.4995 62.0135 38.4623 63.6664L33.9415 67.3325H28.5555C28.143 67.3325 27.7473 67.4964 27.4556 67.7881C27.1639 68.0798 27 68.4755 27 68.888V78.2212C27 78.6337 27.1639 79.0294 27.4556 79.3211C27.7473 79.6128 28.143 79.7767 28.5555 79.7767H63.2407C64.654 79.7778 66.0255 79.2978 67.1295 78.4156L81.8321 66.652C82.1858 66.3691 82.4735 66.0124 82.675 65.6068C82.8765 65.2013 82.9871 64.7566 82.9989 64.3039C83.0108 63.8511 82.9236 63.4013 82.7436 62.9857C82.5636 62.5702 82.295 62.1989 81.9566 61.8979H81.9556Z" fill="#305A02"/>
</svg>
