<svg width="256" height="256" viewBox="0 0 256 256" fill="none" xmlns="http://www.w3.org/2000/svg">
<path d="M231.88 175.08C230.097 188.63 223.442 201.068 213.159 210.071C202.876 219.073 189.667 224.024 176 224C96.6001 224 32.0001 159.4 32.0001 80C31.9756 66.3329 36.927 53.1242 45.9294 42.841C54.9319 32.5577 67.3698 25.9031 80.9201 24.12C84.3466 23.7016 87.8166 24.4026 90.812 26.1184C93.8073 27.8342 96.1675 30.4727 97.5401 33.64L118.66 80.79V80.91C119.711 83.3345 120.145 85.9816 119.923 88.6148C119.702 91.2479 118.831 93.7852 117.39 96C117.21 96.27 117.02 96.52 116.82 96.77L96.0001 121.45C103.49 136.67 119.41 152.45 134.83 159.96L159.17 139.25C159.409 139.049 159.66 138.862 159.92 138.69C162.133 137.214 164.679 136.313 167.328 136.069C169.977 135.824 172.644 136.244 175.09 137.29L175.22 137.35L222.33 158.46C225.503 159.828 228.148 162.186 229.869 165.182C231.591 168.177 232.296 171.65 231.88 175.08Z" fill="white"/>
</svg>
