<svg width="35" height="26" viewBox="0 0 35 26" fill="none" xmlns="http://www.w3.org/2000/svg">
<path d="M23.7893 25.8066H7.09348L7.53577 24.8555C10.285 19.2894 13.868 15.8342 17.1966 13.6882L16.6188 12.4583C13.4997 13.516 10.8645 15.0097 8.858 16.3859C4.70639 19.233 2.27306 22.2066 2.24995 22.2356L0 24.8296L11.6658 0L17.0533 11.4676C19.7825 10.6186 22.8492 10.1096 26.1702 10.2666L29.9443 10.4449L26.2195 11.0667C26.1949 11.0713 26.1548 11.0774 26.1009 11.085C24.7232 11.2801 21.6657 11.9263 18.2399 13.9915L23.7893 25.8066ZM8.3741 24.9988H22.5087L17.5434 14.429C14.3888 16.4835 11.0047 19.7634 8.3741 24.9988ZM11.6658 1.91736L3.12988 20.0835C4.27643 18.9373 6.05019 17.3309 8.36947 15.7367C10.4129 14.3329 13.0959 12.8088 16.2705 11.7221L11.6658 1.91736ZM17.4001 12.2068L17.8932 13.2569C19.4959 12.2997 21.0215 11.6398 22.3407 11.1871C20.5947 11.3731 18.9442 11.7328 17.4001 12.2068Z" fill="#305A02"/>
<path d="M29.2166 10.5039C29.9736 7.66749 30.4791 5.33991 30.3458 5.30511C30.2125 5.27031 29.4908 7.54147 28.7339 10.3779C27.9769 13.2143 27.4714 15.5419 27.6047 15.5767C27.738 15.6115 28.4597 13.3403 29.2166 10.5039Z" fill="#305A02"/>
<path d="M34.1681 11.7946C34.2033 11.6627 31.9069 10.9489 29.039 10.2003C26.1711 9.45168 23.8176 8.95168 23.7825 9.08353C23.7473 9.21538 26.0437 9.92915 28.9116 10.6778C31.7795 11.4264 34.1329 11.9264 34.1681 11.7946Z" fill="#305A02"/>
</svg>
