<svg width="109" height="109" viewBox="0 0 109 109" fill="none" xmlns="http://www.w3.org/2000/svg">
<circle cx="54.5" cy="54.5" r="52.5" fill="#0D9E00" fill-opacity="0.19" stroke="#305A02" stroke-width="4"/>
<path d="M82.525 62.6499H81.05V52.6845C81.05 51.5137 80.5798 50.389 79.7502 49.5593L70.5406 40.3498C69.7109 39.5201 68.5863 39.05 67.4155 39.05H63.35V34.625C63.35 32.182 61.368 30.2 58.925 30.2H29.425C26.982 30.2 25 32.182 25 34.625V64.125C25 66.5679 26.982 68.5499 29.425 68.5499H30.9C30.9 73.4359 34.8641 77.3999 39.75 77.3999C44.6359 77.3999 48.6 73.4359 48.6 68.5499H60.4C60.4 73.4359 64.3641 77.3999 69.25 77.3999C74.1359 77.3999 78.1 73.4359 78.1 68.5499H82.525C83.3363 68.5499 84 67.8862 84 67.0749V64.125C84 63.3137 83.3363 62.6499 82.525 62.6499ZM39.75 72.9749C37.307 72.9749 35.325 70.9929 35.325 68.5499C35.325 66.107 37.307 64.125 39.75 64.125C42.193 64.125 44.175 66.107 44.175 68.5499C44.175 70.9929 42.193 72.9749 39.75 72.9749ZM69.25 72.9749C66.807 72.9749 64.825 70.9929 64.825 68.5499C64.825 66.107 66.807 64.125 69.25 64.125C71.693 64.125 73.675 66.107 73.675 68.5499C73.675 70.9929 71.693 72.9749 69.25 72.9749ZM76.625 53.7999H63.35V43.475H67.4155L76.625 52.6845V53.7999Z" fill="#305A02"/>
</svg>
