<svg width="111" height="109" viewBox="0 0 111 109" fill="none" xmlns="http://www.w3.org/2000/svg">
<path d="M55.5 107C85.0101 107 109 83.5317 109 54.5C109 25.4683 85.0101 2 55.5 2C25.9899 2 2 25.4683 2 54.5C2 83.5317 25.9899 107 55.5 107Z" fill="#0D9E00" fill-opacity="0.19" stroke="#305A02" stroke-width="4"/>
<path d="M42.9446 71.1345C40.7131 68.0764 40.7131 64.5436 40.7131 61.0373C45.203 63.6736 49.6661 66.31 51.9245 69.3945L52.8117 70.8709V64.86C48.7788 62.4873 44.9611 60.0618 42.9446 57.2936C40.7131 54.2355 40.7131 50.7027 40.7131 47.1964C45.203 49.8327 49.6661 52.4691 51.9245 55.5536L52.8117 57.0827V51.0191C48.7788 48.6464 44.9611 46.2209 42.9446 43.4527C40.7131 40.3945 40.7131 36.8618 40.7131 33.3555C45.203 35.9918 49.6661 38.6282 51.9245 41.7127C52.1933 42.0818 52.4353 42.4773 52.6504 42.8991C52.1933 41.2645 51.8976 39.7355 51.8707 38.1536C51.8438 34.1727 53.6183 30.0864 55.3927 26C57.2478 29.9018 59.1029 33.83 59.1298 37.8109C59.1567 39.4718 58.861 41.1591 58.377 42.82C58.5921 42.4509 58.8072 42.0818 59.0761 41.7127C61.3345 38.6282 65.7975 35.9918 70.2874 33.3555C70.2874 36.8618 70.2874 40.3945 68.0559 43.4527C66.0395 46.2209 62.2217 48.6464 58.1888 51.0191V57.0827L59.0761 55.5536C61.3345 52.4691 65.7975 49.8327 70.2874 47.1964C70.2874 50.7027 70.2874 54.2355 68.0559 57.2936C66.0395 60.0618 62.2217 62.4873 58.1888 64.86V70.8709L59.0761 69.3945C61.3345 66.31 65.7975 63.6736 70.2874 61.0373C70.2874 64.5436 70.2874 68.0764 68.0559 71.1345C66.0395 73.9027 62.2217 76.3282 58.1888 78.7009V83.4464H52.8117V78.7009C48.7788 76.3282 44.9611 73.9027 42.9446 71.1345Z" fill="#305A02"/>
</svg>
