<svg width="109" height="109" viewBox="0 0 109 109" fill="none" xmlns="http://www.w3.org/2000/svg">
<circle cx="54.5" cy="54.5" r="52.5" fill="#0D9E00" fill-opacity="0.19" stroke="#305A02" stroke-width="4"/>
<path d="M73.4292 73.7929C72.595 71.2262 70.1888 69.3333 67.3334 69.3333H64.125V59.7083C64.125 58.8574 63.787 58.0413 63.1853 57.4397C62.5836 56.838 61.7676 56.5 60.9167 56.5H41.6667V50.0833H48.0834C48.9343 50.0833 49.7503 49.7453 50.352 49.1436C50.9537 48.5419 51.2917 47.7259 51.2917 46.875V40.4583H57.7084C59.4102 40.4583 61.0423 39.7823 62.2456 38.5789C63.449 37.3755 64.125 35.7434 64.125 34.0416V32.7262C67.9637 34.2738 71.3702 36.7285 74.053 39.8803C76.7357 43.032 78.6148 46.7869 79.5293 50.8235C80.4439 54.8601 80.3667 59.0582 79.3043 63.0584C78.2419 67.0587 76.226 70.7419 73.4292 73.7929ZM51.2917 81.942C38.6188 80.37 28.8334 69.59 28.8334 56.5C28.8334 54.5108 29.09 52.5858 29.5071 50.757L44.875 66.125V69.3333C44.875 71.0351 45.5511 72.6672 46.7544 73.8706C47.9578 75.0739 49.5899 75.75 51.2917 75.75M54.5 24.4166C50.2868 24.4166 46.1148 25.2465 42.2223 26.8588C38.3297 28.4712 34.7929 30.8344 31.8137 33.8136C25.7969 39.8304 22.4167 47.9909 22.4167 56.5C22.4167 65.009 25.7969 73.1695 31.8137 79.1863C34.7929 82.1655 38.3297 84.5288 42.2223 86.1411C46.1148 87.7534 50.2868 88.5833 54.5 88.5833C63.009 88.5833 71.1696 85.2031 77.1864 79.1863C83.2032 73.1695 86.5834 65.009 86.5834 56.5C86.5834 52.2867 85.7535 48.1147 84.1412 44.2222C82.5288 40.3297 80.1656 36.7928 77.1864 33.8136C74.2071 30.8344 70.6703 28.4712 66.7778 26.8588C62.8853 25.2465 58.7133 24.4166 54.5 24.4166Z" fill="#305A02"/>
</svg>
